<svg width="12" height="13" viewBox="0 0 12 13" xmlns="http://www.w3.org/2000/svg">
  <path d="M7.2375 6.5L3.5625 2.825C3.4375 2.7 3.377 2.552 3.381 2.381C3.385 2.21 3.44967 2.06217 3.575 1.9375C3.70033 1.81283 3.84833 1.75033 4.019 1.75C4.18967 1.74967 4.3375 1.81217 4.4625 1.9375L8.3 5.7875C8.4 5.8875 8.475 6 8.525 6.125C8.575 6.25 8.6 6.375 8.6 6.5C8.6 6.625 8.575 6.75 8.525 6.875C8.475 7 8.4 7.1125 8.3 7.2125L4.45 11.0625C4.325 11.1875 4.17917 11.248 4.0125 11.244C3.84583 11.24 3.7 11.1753 3.575 11.05C3.45 10.9247 3.3875 10.7767 3.3875 10.606C3.3875 10.4353 3.45 10.2875 3.575 10.1625L7.2375 6.5Z" fill="#901C1C"/>
</svg>