

<svg width="12" height="13" viewBox="0 0 12 13" xmlns="http://www.w3.org/2000/svg">
  <path d="M4.7625 6.5L8.4375 10.175C8.5625 10.3 8.622 10.445 8.618 10.612C8.614 10.779 8.54933 10.925 8.424 11.05C8.29867 11.175 8.15283 11.2375 7.9875 11.2375C7.82117 11.2375 7.67533 11.175 7.55 11.05L3.7 7.2125C3.6 7.1125 3.525 7 3.475 6.875C3.425 6.75 3.4 6.625 3.4 6.5C3.4 6.375 3.425 6.25 3.475 6.125C3.525 6 3.6 5.8875 3.7 5.7875L7.55 1.9375C7.675 1.8125 7.823 1.752 7.994 1.756C8.165 1.76 8.31283 1.82467 8.4375 1.95C8.56217 2.07533 8.62467 2.22117 8.625 2.3875C8.62533 2.55383 8.56283 2.69967 8.4375 2.825L4.7625 6.5Z" fill="#901C1C"/>
</svg>
